<svg id="Layer_1" data-name="Layer 1" xmlns="http://www.w3.org/2000/svg" viewBox="0 0 436.64 357.49"><defs><style>.cls-1{fill:none;stroke:#000;stroke-miterlimit:10;stroke-width:5px;}</style></defs><title>idea</title><path class="cls-1" d="M149.82,458.54h0c-14,2.8-27.79-4.8-30.54-16.89L68.1,216.56c-2.75-12.09,6.5-24.27,20.55-27.07h0c14-2.79,27.79,4.81,30.54,16.9l51.18,225.08C173.12,443.56,163.87,455.74,149.82,458.54Z" transform="translate(-65.12 -104.13)"/><path class="cls-1" d="M130.82,454.59h0c-13.57-7.34-18.26-23.73-10.43-36.44l137.5-223c7.83-12.7,25.34-17.09,38.91-9.76h0c13.57,7.34,18.26,23.73,10.43,36.44l-137.5,223C161.9,457.53,144.39,461.92,130.82,454.59Z" transform="translate(-65.12 -104.13)"/><path class="cls-1" d="M434,455.09h0c-13.57,7.33-31.08,2.94-38.91-9.76l-137.5-223c-7.83-12.71-3.14-29.1,10.43-36.44h0c13.57-7.33,31.08-2.94,38.91,9.76l137.5,223C452.25,431.36,447.56,447.75,434,455.09Z" transform="translate(-65.12 -104.13)"/><path class="cls-1" d="M414.59,456.74h0c-13.22-2.65-22.49-11.5-20.61-19.68l57-247.74c1.88-8.18,14.23-12.71,27.45-10.06h0c13.22,2.65,22.49,11.5,20.61,19.68L442,446.68C440.16,454.86,427.81,459.39,414.59,456.74Z" transform="translate(-65.12 -104.13)"/><circle class="cls-1" cx="215.12" cy="33.68" r="31.18"/></svg>