<svg id="Capa_1" enable-background="new 0 0 512 512" height="512" viewBox="0 0 512 512" width="512" xmlns="http://www.w3.org/2000/svg"><g><g><path d="m405.902 262.85h-10.322c-4.276 0-7.742-3.466-7.742-7.742s3.466-7.742 7.742-7.742h10.323c4.276 0 7.742 3.466 7.742 7.742s-3.467 7.742-7.743 7.742zm25.805-.004c-4.233 0-7.689-3.406-7.74-7.651-.05-4.275 3.374-7.782 7.65-7.833 3.002-.035 6.008-.329 8.936-.872 4.206-.784 8.244 1.995 9.024 6.2.78 4.204-1.995 8.244-6.2 9.024-3.797.705-7.693 1.085-11.578 1.131-.03.001-.061.001-.092.001zm33.837-10.988c-2.424 0-4.811-1.135-6.321-3.263-2.474-3.487-1.653-8.32 1.834-10.794 2.436-1.729 4.742-3.682 6.852-5.806 3.014-3.034 7.915-3.05 10.949-.036 3.033 3.013 3.05 7.915.036 10.949-2.733 2.751-5.72 5.282-8.877 7.522-1.359.965-2.923 1.428-4.473 1.428zm21.609-28.25c-.885 0-1.785-.153-2.664-.475-4.015-1.472-6.076-5.919-4.605-9.934 1.027-2.801 1.815-5.712 2.343-8.652.757-4.208 4.785-7.006 8.989-6.251 4.208.756 7.007 4.78 6.251 8.989-.686 3.82-1.711 7.603-3.045 11.243-1.148 3.136-4.113 5.08-7.269 5.08zm1.763-35.532c-3.451 0-6.597-2.325-7.494-5.822-.742-2.892-1.742-5.739-2.972-8.462-1.762-3.896-.031-8.482 3.865-10.244 3.897-1.762 8.483-.031 10.244 3.865 1.599 3.538 2.899 7.237 3.862 10.996 1.061 4.142-1.436 8.36-5.577 9.422-.644.166-1.292.245-1.928.245zm-18.704-30.267c-1.803 0-3.613-.626-5.08-1.902-2.257-1.964-4.697-3.745-7.252-5.291-3.658-2.214-4.829-6.974-2.615-10.632s6.976-4.829 10.632-2.615c3.313 2.005 6.475 4.313 9.4 6.858 3.225 2.807 3.564 7.697.757 10.922-1.53 1.759-3.681 2.66-5.842 2.66zm-32.551-14.304c-.285 0-.573-.016-.862-.047-1.914-.212-3.869-.32-5.811-.321h-3.642c-4.276 0-7.742-3.466-7.742-7.742s3.466-7.742 7.742-7.742h3.644c2.511 0 5.039.14 7.516.415 4.249.471 7.313 4.297 6.842 8.547-.441 3.96-3.794 6.89-7.687 6.89zm-36.123-.368h-10.323c-4.276 0-7.742-3.466-7.742-7.742s3.466-7.742 7.742-7.742h10.323c4.276 0 7.742 3.466 7.742 7.742s-3.466 7.742-7.742 7.742zm-36.129 0h-10.323c-4.276 0-7.742-3.466-7.742-7.742s3.466-7.742 7.742-7.742h10.323c4.276 0 7.742 3.466 7.742 7.742s-3.466 7.742-7.742 7.742z" fill="#ff656b"/><path d="m193.274 407.784h-10.323c-4.276 0-7.742-3.466-7.742-7.742s3.466-7.742 7.742-7.742h10.323c4.276 0 7.742 3.466 7.742 7.742s-3.466 7.742-7.742 7.742zm-36.129 0h-10.323c-4.276 0-7.742-3.466-7.742-7.742s3.466-7.742 7.742-7.742h10.323c4.276 0 7.742 3.466 7.742 7.742s-3.466 7.742-7.742 7.742zm-36.129 0h-10.323c-4.276 0-7.742-3.466-7.742-7.742s3.466-7.742 7.742-7.742h10.323c4.276 0 7.742 3.466 7.742 7.742s-3.466 7.742-7.742 7.742zm-36.129 0h-2.924c-2.781 0-5.582-.171-8.324-.509-4.244-.523-7.26-4.387-6.737-8.63s4.384-7.259 8.631-6.737c2.117.261 4.28.393 6.431.393h2.924c4.276 0 7.742 3.466 7.742 7.742s-3.467 7.741-7.743 7.741zm-34.446-8.973c-1.396 0-2.808-.377-4.081-1.168-3.287-2.044-6.422-4.389-9.316-6.969-3.192-2.845-3.473-7.739-.628-10.931s7.74-3.472 10.931-.628c2.234 1.992 4.653 3.801 7.189 5.379 3.631 2.258 4.744 7.032 2.486 10.663-1.465 2.358-3.993 3.654-6.581 3.654zm-23.284-26.892c-2.983 0-5.825-1.733-7.097-4.641-1.556-3.556-2.81-7.271-3.728-11.04-1.012-4.155 1.536-8.342 5.69-9.354s8.343 1.536 9.354 5.69c.707 2.901 1.672 5.761 2.87 8.499 1.714 3.917-.073 8.482-3.99 10.196-1.01.441-2.063.65-3.099.65zm-3.914-35.363c-.485 0-.976-.046-1.47-.141-4.199-.807-6.949-4.865-6.142-9.064.733-3.811 1.803-7.581 3.181-11.205 1.52-3.997 5.993-6.003 9.988-4.484 3.996 1.52 6.004 5.992 4.484 9.988-1.06 2.789-1.884 5.69-2.448 8.624-.711 3.705-3.955 6.282-7.593 6.282zm16.817-31.337c-2.004 0-4.006-.773-5.522-2.315-2.998-3.049-2.955-7.951.094-10.948 2.765-2.718 5.782-5.213 8.967-7.416 3.518-2.433 8.339-1.552 10.771 1.964 2.432 3.517 1.553 8.339-1.964 10.771-2.458 1.7-4.786 3.625-6.921 5.723-1.506 1.482-3.466 2.221-5.425 2.221zm31.625-16.268c-3.697 0-6.967-2.656-7.619-6.422-.729-4.213 2.095-8.22 6.308-8.949 3.802-.658 7.702-.992 11.589-.992 4.276 0 7.742 3.466 7.742 7.742s-3.466 7.742-7.742 7.742c-3.005 0-6.016.258-8.948.765-.447.076-.891.114-1.33.114z" fill="#ff656b"/><path d="m239.978 478.817h56.291c0 15.215-12.324 27.55-27.527 27.55h-1.237c-15.203 0-27.527-12.335-27.527-27.55z" fill="#8c808a"/><path d="m323.893 425.263h-111.539v25.906c0 15.269 12.368 27.647 27.624 27.647h56.291c15.257 0 27.624-12.378 27.624-27.647z" fill="#b2b2b2"/><path d="m280.039 161.185v-42.098l-34.408-4.888c-2.661-10.888-6.95-21.136-12.609-30.462l18.19-24.228c1.542-2.054 1.339-4.93-.476-6.747l-23.409-23.429c-1.818-1.819-4.698-2.023-6.753-.477l-24.201 18.2c-9.319-5.663-19.558-9.957-30.437-12.619l-4.255-30c-.362-2.546-2.54-4.437-5.111-4.437h-33.101c-2.571 0-4.749 1.891-5.11 4.437l-4.255 30c-10.879 2.663-21.118 6.956-30.437 12.619l-24.201-18.2c-2.056-1.546-4.935-1.342-6.753.477l-23.41 23.429c-1.816 1.817-2.019 4.693-.476 6.747l18.19 24.228c-5.658 9.326-9.948 19.574-12.609 30.462l-29.973 4.258c-2.544.362-4.435 2.54-4.435 5.11v33.138c0 2.57 1.891 4.749 4.435 5.11l29.973 4.258c2.66 10.888 6.95 21.136 12.609 30.462l-18.19 24.228c-1.542 2.054-1.339 4.93.476 6.747l23.409 23.429c1.818 1.819 4.698 2.023 6.753.477l24.201-18.2c9.319 5.663 19.558 9.956 30.437 12.619l4.255 30c.361 2.545 2.54 4.436 5.11 4.436h37.582l4.884-34.436c10.878-2.663 21.118-6.956 30.437-12.619l27.785 20.895 29.743-29.768-20.877-27.808c5.659-9.326 9.948-19.574 12.609-30.462zm-139.387 27.503c-29.58 0-53.559-23.999-53.559-53.604s23.979-53.604 53.559-53.604 53.559 23.999 53.559 53.604-23.979 53.604-53.559 53.604z" fill="#8c808a"/><path d="m280.039 161.185v-42.098l-34.408-4.888c-1.226-5.018-2.814-9.893-4.707-14.612-17.774 3.306-34.434 9.785-49.364 18.839 1.713 5.245 2.651 10.841 2.651 16.658 0 29.604-23.979 53.604-53.559 53.604-3.075 0-6.085-.274-9.019-.772-7.382 17.611-11.466 36.949-11.466 57.244 0 12.099 1.456 23.856 4.192 35.112h36.692l4.884-34.437c10.878-2.663 21.118-6.956 30.437-12.619l27.785 20.895 29.743-29.768-20.877-27.808c5.659-9.326 9.948-19.574 12.609-30.462z" fill="#7b7179"/><path d="m512 427.793v-19.224c0-2.57-1.891-4.748-4.435-5.11l-18.6-2.643c-1.781-7.289-4.653-14.15-8.441-20.394l11.289-15.037c1.542-2.054 1.339-4.93-.477-6.747l-13.579-13.59c-1.818-1.819-4.698-2.023-6.753-.477l-15.018 11.294c-6.239-3.791-13.094-6.666-20.377-8.448l-2.641-18.618c-.361-2.545-2.54-4.437-5.11-4.437h-19.198c-2.57 0-4.749 1.892-5.11 4.437l-2.641 18.618c-7.283 1.783-14.138 4.657-20.377 8.448l-15.018-11.294c-2.055-1.546-4.935-1.342-6.753.477l-13.579 13.59c-1.816 1.817-2.019 4.693-.476 6.747l11.289 15.037c-3.788 6.244-6.66 13.105-8.441 20.394l-18.6 2.643c-2.545.362-4.435 2.54-4.435 5.11v19.224c0 2.57 1.891 4.749 4.435 5.11l18.6 2.642c1.781 7.289 4.653 14.15 8.441 20.394l-11.289 15.037c-1.542 2.054-1.339 4.93.476 6.747l13.579 13.59c1.818 1.819 4.698 2.023 6.753.477l15.018-11.294c6.239 3.791 13.094 6.666 20.377 8.448l2.641 18.618c.361 2.545 2.54 4.436 5.11 4.436h19.199c2.571 0 4.749-1.892 5.11-4.436l2.641-18.618c7.283-1.783 14.138-4.657 20.377-8.448l15.018 11.294c2.055 1.546 4.935 1.342 6.753-.477l13.579-13.59c1.815-1.817 2.019-4.693.476-6.747l-11.289-15.037c3.788-6.244 6.66-13.104 8.441-20.394l18.6-2.642c2.544-.361 4.435-2.54 4.435-5.11zm-93.741 28.101c-20.811 0-37.681-16.884-37.681-37.712s16.871-37.712 37.681-37.712 37.681 16.884 37.681 37.712c0 20.827-16.87 37.712-37.681 37.712z" fill="#8c808a"/><g><g><g><path d="m486.528 372.424 5.284-7.038c1.542-2.054 1.339-4.93-.476-6.747l-13.579-13.59c-1.818-1.819-4.698-2.023-6.753-.477l-7.025 5.283z" fill="#7b7179"/></g><g><path d="m435.609 347.418-2.641-18.618c-.361-2.545-2.54-4.437-5.11-4.437h-14.1l2.641 18.618c.361 2.545 2.54 4.436 5.11 4.436h14.1z" fill="#7b7179"/></g><g><path d="m463.98 486.509 7.024 5.282c2.055 1.546 4.935 1.342 6.753-.477l13.579-13.59c1.815-1.817 2.019-4.693.476-6.747l-5.279-7.032z" fill="#7b7179"/></g><g><path d="m493.419 401.45v33.463l14.145-2.01c2.544-.361 4.435-2.54 4.435-5.11v-19.224c0-2.57-1.891-4.748-4.435-5.11z" fill="#7b7179"/></g><g><path d="m416.4 493.382-2.641 18.618h14.1c2.571 0 4.749-1.892 5.11-4.436l2.641-18.618h-14.1c-2.571-.001-4.75 1.891-5.11 4.436z" fill="#7b7179"/></g></g></g><path d="m395.905 246.039c0-70.631-57.21-127.888-127.782-127.888s-127.782 57.258-127.782 127.888c0 36.432 15.221 69.306 39.646 92.599h-.001s22.516 22.508 28.976 45.157c3.439 12.056 3.39 41.468 3.39 41.468h55.769 55.77s-.049-29.412 3.39-41.468c6.46-22.649 28.976-45.157 28.976-45.157 24.427-23.293 39.648-56.167 39.648-92.599z" fill="#ffdc00"/><path d="m277.688 478.817c0 12.182-7.903 22.51-18.855 26.147 2.728.906 5.641 1.403 8.672 1.403h1.237c15.203 0 27.527-12.335 27.527-27.55z" fill="#7b7179"/><path d="m305.312 425.263v25.907c0 15.269-12.368 27.647-27.624 27.647h18.581c15.257 0 27.624-12.378 27.624-27.647v-25.907z" fill="#a0a0a0"/><path d="m395.905 246.039c0-70.631-57.21-127.888-127.782-127.888-3.125 0-6.222.118-9.29.339 66.234 4.764 118.492 60.046 118.492 127.55 0 36.432-15.222 69.306-39.647 92.599s-22.516 22.508-28.976 45.157c-3.439 12.056-3.39 41.468-3.39 41.468h18.581s-.049-29.412 3.39-41.468c6.46-22.649 28.976-45.157 28.976-45.157 24.425-23.294 39.646-56.168 39.646-92.6z" fill="#ffbf00"/><path d="m335.993 307.313c1.89-6.742 1.175-13.786-1.961-19.325-4.763-8.414-16.451-14.971-33.714-5.763-8.832 4.711-14.971 15.561-18.766 33.171-.256 1.184-.501 2.401-.735 3.65-5.281.44-9.835.569-12.704.592-2.832.003-7.409-.152-12.685-.592-.235-1.249-.48-2.466-.735-3.651-3.796-17.609-9.934-28.46-18.766-33.171-17.264-9.208-28.952-2.651-33.714 5.763-3.136 5.54-3.85 12.583-1.961 19.325 1.981 7.067 6.582 13.064 12.956 16.886 7.745 4.645 18.642 7.315 28.69 8.85.981 8.224 1.673 18.25 1.892 30.462.537 29.879-2.094 58.502-2.405 61.753h15.552c.653-7.161 2.837-33.598 2.336-61.901-.186-10.507-.727-20.074-1.616-28.63 5.897.384 9.959.392 10.452.391.5 0 4.569-.006 10.476-.391-.889 8.556-1.43 18.124-1.616 28.631-.5 28.304 1.683 54.74 2.336 61.901h15.552c-.31-3.242-2.935-31.755-2.407-61.628.217-12.27.91-22.335 1.895-30.588 10.05-1.535 20.944-4.205 28.69-8.849 6.376-3.823 10.977-9.82 12.958-16.886zm-114.821 3.606c-6.543-3.924-7.604-11.559-5.483-15.305.99-1.749 2.66-2.362 4.518-2.362 3.03 0 6.557 1.633 8.434 2.634 2.014 1.074 6.835 5.244 10.517 20.994-6.884-1.325-13.444-3.237-17.986-5.961zm93.902 0c-4.541 2.723-11.101 4.636-17.986 5.961 3.682-15.747 8.503-19.919 10.518-20.993 1.877-1.001 5.403-2.634 8.434-2.634 1.857 0 3.528.614 4.518 2.362 2.12 3.746 1.059 11.381-5.484 15.304z" fill="#ff9a00"/></g></g></svg>