<?xml version="1.0" encoding="iso-8859-1"?>
<!-- Generator: Adobe Illustrator 19.0.0, SVG Export Plug-In . SVG Version: 6.00 Build 0)  -->
<svg xmlns="http://www.w3.org/2000/svg" xmlns:xlink="http://www.w3.org/1999/xlink" version="1.1" id="Layer_1" x="0px" y="0px" viewBox="0 0 512.026 512.026" style="enable-background:new 0 0 512.026 512.026;" xml:space="preserve" width="512" height="512">
<g>
	<g>
		<circle style="fill:#FF8C8C;" cx="305.229" cy="206.797" r="196.797"/>
	</g>
	<g>
		<path d="M487.925,143.52c-0.649,0-1.3-0.07-1.949-0.2c-0.641-0.12-1.27-0.32-1.87-0.57c-0.601-0.25-1.181-0.56-1.73-0.92    c-0.54-0.36-1.05-0.78-1.52-1.24c-0.46-0.46-0.88-0.97-1.24-1.52c-0.36-0.54-0.67-1.12-0.92-1.73c-0.25-0.6-0.44-1.23-0.57-1.87    c-0.13-0.64-0.2-1.3-0.2-1.95c0-0.65,0.07-1.31,0.2-1.95c0.13-0.64,0.32-1.27,0.57-1.88c0.25-0.6,0.56-1.18,0.92-1.72    c0.36-0.55,0.78-1.06,1.24-1.52c0.47-0.46,0.979-0.88,1.52-1.25c0.55-0.36,1.13-0.66,1.73-0.91c0.6-0.25,1.229-0.45,1.87-0.58    c1.29-0.25,2.619-0.25,3.909,0c0.641,0.13,1.271,0.33,1.87,0.58c0.601,0.25,1.181,0.55,1.73,0.91c0.54,0.37,1.059,0.79,1.52,1.25    c0.46,0.46,0.88,0.97,1.24,1.52c0.36,0.54,0.67,1.12,0.92,1.72c0.25,0.61,0.44,1.24,0.57,1.88c0.13,0.64,0.2,1.3,0.2,1.95    c0,0.65-0.07,1.31-0.2,1.95c-0.13,0.64-0.32,1.27-0.57,1.87c-0.25,0.61-0.56,1.19-0.92,1.73c-0.36,0.55-0.78,1.06-1.24,1.52    c-0.46,0.46-0.98,0.88-1.52,1.24c-0.55,0.36-1.13,0.67-1.73,0.92c-0.6,0.25-1.23,0.45-1.87,0.57    C489.236,143.45,488.586,143.52,487.925,143.52z"/>
	</g>
	<g>
		<circle style="fill:#FFFFFF;" cx="305.229" cy="206.797" r="146.24"/>
	</g>
	<g>
		<g>
			<path style="fill:#628AFF;" d="M253.261,360.772l18.564-18.564c10.081-10.081,25.75-12.153,38.106-5.04l83.469,58.522     c8.588,4.944,14.258,13.415,15.557,23.239c1.299,9.819-1.974,19.476-8.981,26.484l-12.103,12.103"/>
		</g>
		<g>
			<path style="fill:#628AFF;" d="M54.511,124.153l12.103-12.103c7.007-7.007,16.665-10.281,26.484-8.981     c9.824,1.299,18.295,6.97,23.239,15.557l58.522,83.469c7.113,12.356,5.041,28.025-5.04,38.106l-18.564,18.564"/>
		</g>
		<g>
			<g>
				<path style="fill:#78D2FA;" d="M308.899,400.757l78.974,56.757l-25.259,25.259c-20.565,20.565-51.871,27.119-99.328,7.273      c-44.444-18.586-87.358-47.019-139.457-98.526l-0.01,0.01l-3.325-3.325l0.01-0.01c-51.507-52.099-79.94-95.013-98.526-139.457      c-19.846-47.457-13.292-78.763,7.273-99.328l25.259-25.259l96.743,134.612l-17.32,17.32c-4.802,4.801-5.227,12.394-0.989,17.66      c11.911,14.801,19.136,23.527,40.436,44.901c21.374,21.3,30.1,28.525,44.901,40.436c5.266,4.237,12.859,3.812,17.66-0.99      l17.32-17.32"/>
			</g>
			<path d="M502.026,196.796c-5.522,0-10,4.477-10,10c0,72.515-42.532,139.08-108.354,169.581c-0.079,0.037-0.158,0.074-0.236,0.113     l-30.012-21.042c28.201-9.167,53.543-26.367,72.557-49.498c22.886-27.84,35.489-63.053,35.489-99.154     c0-86.151-70.089-156.24-156.24-156.24c-68.379,0-128.099,44.413-148.665,108.027l-21.029-29.993     c0.039-0.079,0.077-0.158,0.115-0.238C166.153,62.531,232.716,20,305.229,20c55.952,0,108.491,24.778,144.146,67.981     c3.515,4.259,9.818,4.862,14.078,1.348c4.26-3.516,4.863-9.818,1.348-14.078C425.333,27.428,367.172,0,305.229,0     c-40.218,0-79.21,11.557-112.762,33.421c-29.512,19.231-53.511,45.495-69.937,76.407c-6.672-9.166-16.702-15.163-28.121-16.673     c-12.936-1.712-25.642,2.599-34.867,11.824L22.181,142.34c-25.984,25.984-29.156,63.08-9.427,110.257     c20.415,48.819,51.345,92.705,100.267,142.253c0.13,0.146,0.265,0.289,0.404,0.428l3.325,3.324     c0.138,0.138,0.28,0.272,0.424,0.401c49.547,48.922,93.436,79.855,142.254,100.269c20.341,8.506,38.802,12.755,55.312,12.754     c21.782-0.001,40.165-7.4,54.946-22.181l37.361-37.362c9.225-9.226,13.534-21.934,11.824-34.866     c-1.512-11.42-7.509-21.45-16.674-28.121c30.912-16.425,57.175-40.424,76.406-69.935c21.864-33.552,33.422-72.546,33.422-112.764     C512.026,201.273,507.549,196.796,502.026,196.796z M305.229,70.556c75.123,0,136.24,61.117,136.24,136.24     c0,64.177-45.52,120.264-108.235,133.362c-0.4,0.083-0.789,0.19-1.167,0.318l-16.397-11.496c-0.243-0.17-0.493-0.33-0.751-0.479     c-16.267-9.364-36.895-6.637-50.166,6.636l-35.884,35.884c-1.182,1.184-3.04,1.298-4.319,0.27     c-14.494-11.664-23.038-18.729-44.087-39.704c-21.001-21.074-28.065-29.618-39.728-44.111c-1.03-1.28-0.915-3.137,0.269-4.32     l35.883-35.883c13.271-13.271,16-33.9,6.636-50.166c-0.148-0.257-0.308-0.508-0.478-0.751l-11.433-16.307     C184.246,116.533,240.254,70.556,305.229,70.556z M91.787,112.982c6.715,0.888,12.504,4.764,15.883,10.633     c0.148,0.257,0.308,0.508,0.479,0.751l58.241,83.07c4.623,8.389,3.152,18.899-3.643,25.693l-10.242,10.241L67.591,125.216     l6.095-6.095C78.475,114.332,85.075,112.093,91.787,112.982z M392.905,438.341l-6.095,6.095l-72.075-51.799     c-4.486-3.224-10.734-2.2-13.956,2.285c-3.224,4.485-2.2,10.733,2.284,13.956l69.417,49.888l-16.936,16.936     c-19.967,19.968-48.883,21.643-88.399,5.119c-46.463-19.43-88.495-49.165-136.285-96.411c-0.111-0.109-0.224-0.216-0.338-0.319     l-2.583-2.582c-0.104-0.116-0.212-0.23-0.323-0.343c-47.246-47.789-76.981-89.821-96.411-136.284     c-16.524-39.515-14.85-68.43,5.119-88.398l16.936-16.937l84.915,118.155l-11.311,11.311c-8.421,8.419-9.156,21.747-1.71,31.002     c12.101,15.037,19.427,23.898,41.168,45.715c21.792,21.716,30.653,29.042,45.691,41.144c9.254,7.446,22.582,6.71,31-1.71     l17.32-17.32c0.006-0.006,0.013-0.013,0.019-0.02l18.544-18.544c6.794-6.794,17.305-8.267,25.693-3.643l83.069,58.241     c0.244,0.171,0.494,0.33,0.752,0.479c5.869,3.379,9.745,9.168,10.633,15.884C399.932,426.954,397.695,433.551,392.905,438.341z"/>
		</g>
	</g>
	<g>
		<g>
			<path d="M240.11,171.877c10.439,0,20.969,6.569,20.969,18.629c0,19.529-27.809,25.919-27.809,34.109v0.81h23.579     c2.25,0,4.229,2.79,4.229,6.03c0,3.24-1.979,6.21-4.229,6.21H224.81c-2.52,0-6.12-1.71-6.12-4.32v-8.73     c0-14.129,28.35-22.229,28.35-33.659c0-2.88-1.801-6.39-6.84-6.39c-3.601,0-6.75,1.8-6.75,6.749c0,2.61-2.79,5.13-7.38,5.13     c-3.6,0-6.3-1.62-6.3-7.29C219.77,178.177,229.85,171.877,240.11,171.877z"/>
		</g>
		<g>
			<path d="M286.91,223.805h-21.06c-2.609,0-4.68-1.71-4.68-4.86c0-0.72,0.18-1.71,0.72-2.7l20.789-40.768     c1.351-2.61,3.601-3.6,5.85-3.6c2.431,0,7.021,2.07,7.021,5.31c0,0.54-0.181,1.08-0.45,1.71l-15.93,31.949h7.74v-6.3     c0-2.97,3.51-4.23,7.02-4.23c3.51,0,7.02,1.26,7.02,4.23v6.3h3.87c2.88,0,4.319,3.24,4.319,6.48c0,3.24-2.159,6.48-4.319,6.48     h-3.87v9.54c0,2.88-3.51,4.32-7.02,4.32c-3.51,0-7.02-1.44-7.02-4.32V223.805z"/>
		</g>
		<g>
			<path d="M351.528,172.957c0,0.54-0.09,1.17-0.359,1.71l-31.679,64.888c-0.63,1.35-2.34,2.25-4.05,2.25     c-3.061,0-5.04-2.52-5.04-4.77c0-0.54,0.18-1.17,0.45-1.71l31.589-64.887c0.72-1.53,2.159-2.25,3.779-2.25     C348.738,168.188,351.528,170.077,351.528,172.957z"/>
		</g>
		<g>
			<path d="M398.328,187.447c0,2.34-1.44,5.85-2.88,8.549l-21.059,40.318c-0.72,1.35-2.07,1.89-3.96,1.89     c-4.41,0-8.91-3.06-8.91-7.11c0-0.81,0.181-1.53,0.631-2.34l22.139-38.338v-6.3h-16.109v6.03c0,2.43-3.42,4.32-7.109,4.32     c-3.78,0-6.93-1.89-6.93-4.32v-13.949c0-2.16,3.059-4.32,6.119-4.32h31.949c2.699,0,6.119,2.16,6.119,4.32V187.447z"/>
		</g>
	</g>
</g>















</svg>
